<svg xmlns="http://www.w3.org/2000/svg" xmlns:xlink="http://www.w3.org/1999/xlink">
    <symbol id="menu" viewBox="0 0 384.97 384.97"  >
        <g>
            <g>
                <path d="M12.03,120.303h360.909c6.641,0,12.03-5.39,12.03-12.03c0-6.641-5.39-12.03-12.03-12.03H12.03
			c-6.641,0-12.03,5.39-12.03,12.03C0,114.913,5.39,120.303,12.03,120.303z"/>
                <path d="M372.939,180.455H12.03c-6.641,0-12.03,5.39-12.03,12.03s5.39,12.03,12.03,12.03h360.909c6.641,0,12.03-5.39,12.03-12.03
			S379.58,180.455,372.939,180.455z"/>
                <path d="M372.939,264.667H132.333c-6.641,0-12.03,5.39-12.03,12.03c0,6.641,5.39,12.03,12.03,12.03h240.606
			c6.641,0,12.03-5.39,12.03-12.03C384.97,270.056,379.58,264.667,372.939,264.667z"/>
            </g>
        </g>
    </symbol>
    <symbol id="cross" viewBox="0 0 512.001 512.001" >
        <g>
            <g>
                <path d="M284.286,256.002L506.143,34.144c7.811-7.811,7.811-20.475,0-28.285c-7.811-7.81-20.475-7.811-28.285,0L256,227.717
			L34.143,5.859c-7.811-7.811-20.475-7.811-28.285,0c-7.81,7.811-7.811,20.475,0,28.285l221.857,221.857L5.858,477.859
			c-7.811,7.811-7.811,20.475,0,28.285c3.905,3.905,9.024,5.857,14.143,5.857c5.119,0,10.237-1.952,14.143-5.857L256,284.287
			l221.857,221.857c3.905,3.905,9.024,5.857,14.143,5.857s10.237-1.952,14.143-5.857c7.811-7.811,7.811-20.475,0-28.285
			L284.286,256.002z"/>
            </g>
        </g>
    </symbol>
</svg>

